<svg width="25" height="26" viewBox="0 0 25 26" fill="none" xmlns="http://www.w3.org/2000/svg">
<path fill-rule="evenodd" clip-rule="evenodd" d="M9.70878 3.44438C9.70875 3.44454 9.70881 3.44422 9.70878 3.44438L9.55409 4.36546C10.1394 4.3507 10.7247 4.34333 11.31 4.34333C12.6905 4.34333 14.0723 4.36799 15.4539 4.41681L15.2904 3.45063C15.1908 2.83973 15.133 2.67934 15.0582 2.59317C15.041 2.57308 14.8778 2.38333 14.0284 2.38333H10.9717C10.1094 2.38333 9.95215 2.56712 9.94108 2.58005C9.94091 2.58024 9.94118 2.57993 9.94108 2.58005C9.92216 2.6015 9.88349 2.65576 9.83953 2.80203C9.79188 2.96054 9.75802 3.15202 9.70878 3.44438ZM17.5998 4.512C19.4374 4.61005 21.2731 4.75038 23.1036 4.93178C23.6806 4.98896 24.1021 5.50313 24.0449 6.08021C23.9877 6.65728 23.4736 7.07873 22.8965 7.02154C19.0449 6.63985 15.1712 6.44333 11.31 6.44333C9.03545 6.44333 6.76067 6.5582 4.48555 6.78801L4.48248 6.78832L2.10248 7.02165C1.52535 7.07823 1.01162 6.65624 0.955037 6.07911C0.898456 5.50198 1.32045 4.98825 1.89758 4.93167L4.27607 4.69848C5.32067 4.59299 6.36534 4.511 7.41007 4.4525L7.63786 3.09609C7.6426 3.06798 7.64751 3.03814 7.65253 3.00765C7.73146 2.52822 7.85646 1.76893 8.36563 1.19155C8.96836 0.508072 9.8754 0.283325 10.9717 0.283325H14.0284C15.1404 0.283325 16.0458 0.527134 16.6443 1.21682C17.1534 1.80348 17.2751 2.56412 17.3506 3.0359C17.3547 3.06139 17.3587 3.08603 17.3625 3.10976L17.5998 4.512ZM4.44073 8.61551C5.01942 8.57815 5.51883 9.017 5.55618 9.59569L6.31413 21.3383C6.31419 21.3392 6.31426 21.3402 6.31433 21.3411C6.34742 21.8134 6.37473 22.1741 6.43748 22.4857C6.49818 22.7871 6.57894 22.9665 6.67108 23.0864C6.8176 23.2772 7.23332 23.6167 8.75503 23.6167H16.245C17.7667 23.6167 18.1824 23.2772 18.329 23.0864C18.4211 22.9665 18.5019 22.7871 18.5626 22.4857C18.6253 22.1741 18.6526 21.8134 18.6857 21.3411C18.6858 21.3402 18.6859 21.3392 18.6859 21.3383L19.4439 9.59569C19.4812 9.017 19.9806 8.57815 20.5593 8.61551C21.138 8.65286 21.5769 9.15227 21.5395 9.73096L20.7812 21.4793L20.7808 21.485L20.7789 21.5119C20.7484 21.9475 20.7139 22.44 20.6212 22.9003C20.5244 23.3809 20.3514 23.9008 19.9944 24.3656C19.2426 25.3444 17.9783 25.7167 16.245 25.7167H8.75503C7.02174 25.7167 5.75745 25.3444 5.00564 24.3656C4.64861 23.9008 4.47562 23.3809 4.37882 22.9003C4.28611 22.44 4.25164 21.9476 4.22114 21.5119L4.21926 21.485L4.21887 21.4793L3.46054 9.73096C3.42319 9.15227 3.86203 8.65286 4.44073 8.61551ZM8.53336 13.5833C8.53336 13.0034 9.00346 12.5333 9.58336 12.5333H15.4167C15.9966 12.5333 16.4667 13.0034 16.4667 13.5833C16.4667 14.1632 15.9966 14.6333 15.4167 14.6333H9.58336C9.00346 14.6333 8.53336 14.1632 8.53336 13.5833ZM9.50169 18.25C9.50169 17.6701 9.97179 17.2 10.5517 17.2H14.4367C15.0166 17.2 15.4867 17.6701 15.4867 18.25C15.4867 18.8299 15.0166 19.3 14.4367 19.3H10.5517C9.97179 19.3 9.50169 18.8299 9.50169 18.25Z" fill="#2E3539"/>
</svg>
