<svg width="27" height="26" viewBox="0 0 27 26" fill="none" xmlns="http://www.w3.org/2000/svg">
<path fill-rule="evenodd" clip-rule="evenodd" d="M2.9537 6.73717L9.7451 1.4379C11.4461 0.113087 14.2811 0.050001 16.0451 1.2865L23.8319 6.74979C25.0793 7.62038 26.0999 9.57606 26.0999 11.1028V20.2881C26.0999 23.2027 23.7185 25.6 20.7953 25.6H6.2045C3.2813 25.6 0.899902 23.2027 0.899902 20.2755V10.9261C0.899902 9.50035 1.8197 7.62038 2.9537 6.73717ZM18.0359 20.5658C18.871 20.5658 19.5479 20.0009 19.5479 19.304C19.5479 18.6072 18.871 18.0423 18.0359 18.0423H8.9639C8.12885 18.0423 7.4519 18.6072 7.4519 19.304C7.4519 20.0009 8.12885 20.5658 8.9639 20.5658H18.0359Z" fill="#000"/>
</svg>
