<svg width="24" height="24" viewBox="0 0 24 24" fill="none" xmlns="http://www.w3.org/2000/svg">
<path d="M12.001 17.35C12.4333 17.35 12.8479 17.1783 13.1536 16.8726C13.4593 16.5669 13.631 16.1523 13.631 15.72C13.631 15.2877 13.4593 14.8731 13.1536 14.5674C12.8479 14.2617 12.4333 14.09 12.001 14.09C11.5687 14.09 11.1541 14.2617 10.8484 14.5674C10.5427 14.8731 10.371 15.2877 10.371 15.72C10.371 16.1523 10.5427 16.5669 10.8484 16.8726C11.1541 17.1783 11.5687 17.35 12.001 17.35Z" fill="#818688"/>
<path d="M18.28 9.53V8.28C18.28 5.58 17.63 2 12 2C6.37 2 5.72 5.58 5.72 8.28V9.53C2.92 9.88 2 11.3 2 14.79V16.65C2 20.75 3.25 22 7.35 22H16.65C20.75 22 22 20.75 22 16.65V14.79C22 11.3 21.08 9.88 18.28 9.53ZM12 18.74C10.33 18.74 8.98 17.38 8.98 15.72C8.98 14.05 10.34 12.7 12 12.7C12.8001 12.7026 13.5668 13.0217 14.1326 13.5875C14.6983 14.1532 15.0174 14.9199 15.02 15.72C15.02 17.39 13.67 18.74 12 18.74ZM7.35 9.44H7.12V8.28C7.12 5.35 7.95 3.4 12 3.4C16.05 3.4 16.88 5.35 16.88 8.28V9.45H7.35V9.44Z" fill="#818688"/>
</svg>
